<?xml version="1.0" encoding="UTF-8"?>
<svg id="Layer_2" data-name="Layer 2" xmlns="http://www.w3.org/2000/svg" viewBox="0 0 292.12 292.12">
  <defs>
    <style>
      .cls-1 {
        stroke-width: 1.03px;
      }

      .cls-1, .cls-2, .cls-3 {
        fill: #dbdbdb;
      }

      .cls-1, .cls-3 {
        stroke: #000;
        stroke-miterlimit: 10;
      }

      .cls-4 {
        fill: #8e8d87;
      }

      .cls-4, .cls-5, .cls-6, .cls-2, .cls-7, .cls-8, .cls-9, .cls-10 {
        stroke-width: 0px;
      }

      .cls-6 {
        fill: #5d799b;
      }

      .cls-7 {
        fill: #abb8d6;
      }

      .cls-8 {
        fill: #2b53a3;
      }

      .cls-3 {
        stroke-width: .8px;
      }

      .cls-9 {
        fill: #c6dde5;
      }

      .cls-10 {
        fill: #e2d664;
      }
    </style>
  </defs>
  <g id="Layer_1-2" data-name="Layer 1">
    <g>
      <path class="cls-9" d="M146.06,0C71.69,0,10.32,55.59,1.19,127.47c4.65-.07,9.63-.13,14.86-.18l46.51-17.44,24.46,17.95c10.66.32,20.7.78,29.45,1.44l39.4-75.69,49.06,92.51,46.8-53.45,40.34,57.31c.03-1.28.05-2.57.05-3.86C292.12,65.39,226.73,0,146.06,0Z"/>
      <path class="cls-7" d="M87.02,127.8l-24.46-17.95-46.51,17.44c21.83-.21,47.83-.19,70.97.51Z"/>
      <path class="cls-7" d="M204.93,146.06l-49.06-92.51-39.4,75.69c15.53,1.16,26.97,2.9,30.45,5.49,13.01,9.68,53.77,59.98,50.08,75.8-.04.18-.1.35-.16.52h80.02c9.21-18.49,14.64-39.2,15.21-61.13l-40.34-57.31-46.8,53.45Z"/>
      <path class="cls-6" d="M146.06,292.12c48.97,0,92.3-24.1,118.8-61.08H27.26c26.5,36.98,69.84,61.08,118.8,61.08Z"/>
      <path class="cls-10" d="M195.35,213.5c-.25.23-.52.45-.82.65-14.51,9.07-23.1,9.07-32.24,9.07H22.06c1.66,2.66,3.37,5.28,5.19,7.81h237.6c4.52-6.3,8.52-12.99,12.01-19.98h-80.02c-.3.97-.79,1.8-1.49,2.45Z"/>
      <path class="cls-4" d="M109.37,142.87l7.1-13.63c-8.75-.65-18.79-1.12-29.45-1.44l20.53,15.07h1.83Z"/>
      <path class="cls-4" d="M16.05,127.29c-5.22.05-10.21.11-14.86.18-.24,1.86-.45,3.74-.61,5.62l15.47-5.8Z"/>
      <path class="cls-10" d="M4.03,180.24c.35,1.44.72,2.88,1.11,4.3,30.89.6,81.93,1.67,101.81,2.64,22.7,1.11,61.86,14.41,83.12,23.87h6.77c.05-.17.11-.34.16-.52-17.63-9.18-65.1-26.38-91.05-27.64-19.91-.97-71.04-2.05-101.92-2.65Z"/>
      <path class="cls-10" d="M195.35,213.5c.7-.65,1.18-1.48,1.49-2.45h-6.77c1.91.85,3.69,1.67,5.29,2.45Z"/>
      <path class="cls-8" d="M5.14,184.54c2.52,9.23,5.91,18.1,10.1,26.51h174.83c-21.26-9.46-60.42-22.76-83.12-23.87-19.89-.97-70.92-2.05-101.81-2.64Z"/>
      <path class="cls-8" d="M194.53,214.14c.3-.19.57-.41.82-.65-1.6-.78-3.38-1.6-5.29-2.45H15.23c2.08,4.18,4.38,8.23,6.83,12.17h140.23c9.13,0,17.73,0,32.24-9.07Z"/>
      <path class="cls-4" d="M146.92,134.73c-3.48-2.59-14.92-4.33-30.45-5.49l-7.1,13.63h2.17c2.41,0,4.36,1.95,4.36,4.36v18.69c0,2.41-1.95,4.36-4.36,4.36h-40.97c-2.41,0-4.36-1.95-4.36-4.36v-18.69c0-2.41,1.95-4.36,4.36-4.36h36.97l-20.53-15.07c-23.14-.7-49.14-.71-70.97-.51l-15.47,5.8c-.26,2.92-.42,5.87-.51,8.84h39.83c2.92,0,5.29,2.38,5.29,5.29v18.69c0,2.92-2.38,5.29-5.29,5.29H2.19c.53,3.04,1.13,6.06,1.84,9.03,30.88.6,82.01,1.68,101.92,2.65,25.95,1.27,73.42,18.46,91.05,27.64,3.7-15.82-37.07-66.12-50.08-75.8Z"/>
      <path class="cls-5" d="M45.2,165.92v-18.69c0-2.92-2.38-5.29-5.29-5.29H.07c0,.31-.03.62-.04.94h39.86c2.41,0,4.36,1.95,4.36,4.36v18.69c0,2.41-1.95,4.36-4.36,4.36H2.01c.05.31.12.62.17.94h37.71c2.92,0,5.29-2.38,5.29-5.29Z"/>
      <path class="cls-2" d="M2.01,170.27h37.89c2.41,0,4.36-1.95,4.36-4.36v-18.69c0-2.41-1.95-4.36-4.36-4.36H.04c-.02,1.06-.04,2.12-.04,3.19,0,8.25.7,16.34,2.01,24.22Z"/>
      <rect class="cls-1" x="65.2" y="142.44" width="51.27" height="28.27" rx="4.5" ry="4.5"/>
      <rect class="cls-3" x="63.14" y="141.94" width="54.27" height="29.27" rx="4.01" ry="4.01"/>
    </g>
  </g>
</svg>